<?xml version="1.0" encoding="UTF-8" standalone="no"?>
<!-- Created with Inkscape (http://www.inkscape.org/) -->

<svg
   version="1.1"
   id="svg1"
   width="756"
   height="756"
   viewBox="0 0 756 756"
   sodipodi:docname="rubycore-hummingbird-756x756.svg"
   inkscape:version="1.4.2 (ebf0e940, 2025-05-08)"
   inkscape:export-filename="rubycore-hummingbird-756x756.png"
   inkscape:export-xdpi="96"
   inkscape:export-ydpi="96"
   xmlns:inkscape="http://www.inkscape.org/namespaces/inkscape"
   xmlns:sodipodi="http://sodipodi.sourceforge.net/DTD/sodipodi-0.dtd"
   xmlns="http://www.w3.org/2000/svg"
   xmlns:svg="http://www.w3.org/2000/svg">
  <defs
     id="defs1" />
  <sodipodi:namedview
     id="namedview1"
     pagecolor="#ffffff"
     bordercolor="#000000"
     borderopacity="0.25"
     inkscape:showpageshadow="2"
     inkscape:pageopacity="0.0"
     inkscape:pagecheckerboard="0"
     inkscape:deskcolor="#d1d1d1"
     showgrid="false"
     inkscape:zoom="0.8381747"
     inkscape:cx="96.04203"
     inkscape:cy="452.76957"
     inkscape:window-width="2552"
     inkscape:window-height="1186"
     inkscape:window-x="2113"
     inkscape:window-y="25"
     inkscape:window-maximized="0"
     inkscape:current-layer="g1" />
  <g
     inkscape:groupmode="layer"
     inkscape:label="hummingbird"
     id="g1"
     style="opacity:1;mix-blend-mode:normal"
     transform="matrix(2.6141326,0,0,2.6141326,-239.43116,-196.55448)">
    <path
       style="fill:#87fa48;fill-opacity:1;stroke:#000000;stroke-width:0"
       d="m 107.57946,113.69193 71.63814,10.75795 38.87531,67.23716 z"
       id="path1"
       sodipodi:nodetypes="cccc" />
    <path
       style="fill:#64fa19;fill-opacity:1;stroke:#000000;stroke-width:0"
       d="M 218.09291,191.68704 200.7335,200.2445 107.57946,113.69193 Z"
       id="path2"
       sodipodi:nodetypes="cccc" />
    <path
       style="fill:#97fa5a;fill-opacity:1;stroke:#000000;stroke-width:0"
       d="m 179.2176,124.44988 44.42698,32.32723 -5.55167,34.90993 z"
       id="path3"
       sodipodi:nodetypes="cccc" />
    <path
       style="fill:#aefc79;fill-opacity:1;stroke:#000000;stroke-width:0"
       d="m 260.69277,198.49398 -37.04819,-41.71687 -5.55167,34.90993 z"
       id="path4"
       sodipodi:nodetypes="cccc" />
    <path
       style="fill:#38db0f;fill-opacity:1;stroke:#000000;stroke-width:0"
       d="m 209.18675,124.39759 19.1265,13.85542 36.59639,45.78313 -4.21687,14.45784 -37.04819,-41.71687 z"
       id="path5"
       sodipodi:nodetypes="cccccc" />
    <path
       style="fill:#aefc79;fill-opacity:1;stroke:#000000;stroke-width:0"
       d="m 302.10844,179.81928 -12.80121,-7.83133 -15.66265,-0.1506 -8.73494,12.19879 15.81325,19.27711 z"
       id="path6"
       sodipodi:nodetypes="cccccc" />
    <path
       style="fill:#87fa48;fill-opacity:1;stroke:#000000;stroke-width:0"
       d="m 364.79991,185.69706 -62.69147,-5.87778 -21.38555,23.49397 7.98193,32.07832 17.46988,-46.23494 z"
       id="path7"
       sodipodi:nodetypes="cccccc" />
    <path
       style="fill:#97fa5a;fill-opacity:1;stroke:#000000;stroke-width:0"
       d="m 264.90964,184.03614 -4.21687,14.45784 8.74851,23.28481 19.26354,13.61278 -7.98193,-32.07832 z"
       id="path8"
       sodipodi:nodetypes="cccccc" />
    <path
       style="fill:#50e615;fill-opacity:1;stroke:#000000;stroke-width:0"
       d="m 232.95325,241.50513 -14.86034,-49.81809 -17.35941,8.55746 22.18554,34.7612 z"
       id="path9"
       sodipodi:nodetypes="ccccc" />
    <path
       style="fill:#87fa48;fill-opacity:1;stroke:#000000;stroke-width:0"
       d="m 218.09291,191.68704 42.59986,6.80694 -27.73952,43.01115 z"
       id="path10"
       sodipodi:nodetypes="cccc" />
    <path
       style="fill:#64fa19;fill-opacity:1;stroke:#000000;stroke-width:0"
       d="m 260.69277,198.49398 -27.73952,43.01115 36.48803,-19.72634 z"
       id="path11"
       sodipodi:nodetypes="cccc" />
    <path
       style="fill:#b71717;fill-opacity:1;stroke:#000000;stroke-width:0"
       d="m 257.92474,261.68757 11.51654,-39.90878 19.26354,13.61278 z"
       id="path12"
       sodipodi:nodetypes="cccc" />
    <path
       style="fill:#50e615;fill-opacity:1;stroke:#000000;stroke-width:0"
       d="m 235.4618,271.49373 -2.50855,-29.9886 36.48803,-19.72634 -11.51654,39.90878 z"
       id="path13"
       sodipodi:nodetypes="ccccc" />
    <path
       style="fill:#38db0f;fill-opacity:1;stroke:#000000;stroke-width:0"
       d="m 214.25314,318.47206 21.20866,-46.97833 -2.50855,-29.9886 -15.16534,35.0057 z"
       id="path14"
       sodipodi:nodetypes="ccccc" />
    <path
       style="fill:#0bc208;fill-opacity:1;stroke:#000000;stroke-width:0"
       d="m 222.91904,235.0057 10.03421,6.49943 -15.16534,35.0057 -56.55644,49.37286 z"
       id="path15"
       sodipodi:nodetypes="ccccc" />
    <path
       style="fill:#18d60b;fill-opacity:1;stroke:#000000;stroke-width:0"
       d="m 217.78791,276.51083 -56.55644,49.37286 53.02167,-7.41163 z"
       id="path16"
       sodipodi:nodetypes="cccc" />
  </g>
</svg>
